/* XPM */
static char * ywall_xpm[] = {
"70 64 461 2",
"  	c #203828",
". 	c #25422D",
"+ 	c #2C5134",
"@ 	c #2D5134",
"# 	c #1D3226",
"$ 	c #152322",
"% 	c #0E161D",
"& 	c #0A1215",
"* 	c #081010",
"= 	c #305838",
"- 	c #25432D",
"; 	c #27472F",
"> 	c #2B4E33",
", 	c #294B31",
"' 	c #233E2A",
") 	c #1B2F25",
"! 	c #142121",
"~ 	c #0F181E",
"{ 	c #0E1818",
"] 	c #0D1715",
"^ 	c #0B1415",
"/ 	c #0B1215",
"( 	c #0A1214",
"_ 	c #091112",
": 	c #081011",
"< 	c #091114",
"[ 	c #0B1315",
"} 	c #0C1615",
"| 	c #0D1614",
"1 	c #0E1815",
"2 	c #101B17",
"3 	c #111D18",
"4 	c #27462F",
"5 	c #223D2A",
"6 	c #1D3325",
"7 	c #182822",
"8 	c #131E20",
"9 	c #111C1F",
"0 	c #14201E",
"a 	c #13201D",
"b 	c #101A1D",
"c 	c #0D151A",
"d 	c #15231D",
"e 	c #17271E",
"f 	c #1A2E22",
"g 	c #1C3123",
"h 	c #2B4E32",
"i 	c #2B4F33",
"j 	c #284830",
"k 	c #213B2A",
"l 	c #182821",
"m 	c #152320",
"n 	c #131F20",
"o 	c #141F20",
"p 	c #14211F",
"q 	c #111B1E",
"r 	c #0F1B19",
"s 	c #13201F",
"t 	c #182A24",
"u 	c #1E3526",
"v 	c #213B29",
"w 	c #233F2A",
"x 	c #23462D",
"y 	c #234F31",
"z 	c #225333",
"A 	c #1C3226",
"B 	c #203A28",
"C 	c #1E3527",
"D 	c #0D1619",
"E 	c #17271F",
"F 	c #1B2F24",
"G 	c #284930",
"H 	c #2D5235",
"I 	c #305938",
"J 	c #2F633C",
"K 	c #2A6D40",
"L 	c #267342",
"M 	c #1D3328",
"N 	c #1B3027",
"O 	c #182824",
"P 	c #152222",
"Q 	c #131F21",
"R 	c #13211F",
"S 	c #172824",
"T 	c #1B2F27",
"U 	c #1E3529",
"V 	c #213B2C",
"W 	c #264430",
"X 	c #2C4F36",
"Y 	c #30583A",
"Z 	c #335E3D",
"` 	c #326740",
" .	c #2C7043",
"..	c #287544",
"+.	c #152422",
"@.	c #244133",
"#.	c #223D30",
"$.	c #1F362A",
"%.	c #0D1518",
"&.	c #233E30",
"*.	c #254233",
"=.	c #264434",
"-.	c #274735",
";.	c #294B37",
">.	c #2B4E39",
",.	c #2C513A",
"'.	c #2C553B",
").	c #29593C",
"!.	c #285C3D",
"~.	c #233F33",
"{.	c #234033",
"].	c #223C30",
"^.	c #101A1E",
"/.	c #0A1114",
"(.	c #0C1518",
"_.	c #111A1E",
":.	c #152221",
"<.	c #192922",
"[.	c #1C3024",
"}.	c #1F3627",
"|.	c #213B2B",
"1.	c #243F30",
"2.	c #244033",
"3.	c #192B28",
"4.	c #182927",
"5.	c #162624",
"6.	c #182922",
"7.	c #1C3125",
"8.	c #203728",
"9.	c #1F3728",
"0.	c #1E3428",
"a.	c #1C3128",
"b.	c #1A2D28",
"c.	c #182B28",
"d.	c #182A28",
"e.	c #182928",
"f.	c #0E1819",
"g.	c #162522",
"h.	c #172721",
"i.	c #1A2C22",
"j.	c #1D3225",
"k.	c #1E3426",
"l.	c #1D3326",
"m.	c #152220",
"n.	c #121B20",
"o.	c #101820",
"p.	c #101720",
"q.	c #111B20",
"r.	c #121C20",
"s.	c #0A1115",
"t.	c #1A2C24",
"u.	c #1C2F25",
"v.	c #192B22",
"w.	c #192A21",
"x.	c #172622",
"y.	c #142222",
"z.	c #142120",
"A.	c #162420",
"B.	c #1C3025",
"C.	c #192A22",
"D.	c #162520",
"E.	c #142022",
"F.	c #172726",
"G.	c #1A2E28",
"H.	c #1E3528",
"I.	c #203928",
"J.	c #203827",
"K.	c #121D20",
"L.	c #101920",
"M.	c #1A2D26",
"N.	c #203A2F",
"O.	c #254433",
"P.	c #294B33",
"Q.	c #0D1618",
"R.	c #1A2E27",
"S.	c #24402D",
"T.	c #2A4C36",
"U.	c #2F543A",
"V.	c #31593A",
"W.	c #315E3B",
"X.	c #2F623C",
"Y.	c #2E643D",
"Z.	c #111920",
"`.	c #2E5436",
" +	c #325D3B",
".+	c #35623E",
"++	c #36643E",
"@+	c #336A40",
"#+	c #2E7343",
"$+	c #2A7844",
"%+	c #0E161C",
"&+	c #0F171F",
"*+	c #121D22",
"=+	c #162626",
"-+	c #243F2D",
";+	c #2D563B",
">+	c #2E5F3C",
",+	c #2F693D",
"'+	c #32723D",
")+	c #33763E",
"!+	c #2F7A3F",
"~+	c #298242",
"{+	c #258644",
"]+	c #111A20",
"^+	c #0C1318",
"/+	c #0F171E",
"(+	c #1F382F",
"_+	c #2D7243",
":+	c #2A7E42",
"<+	c #28883D",
"[+	c #288E3A",
"}+	c #268F3B",
"|+	c #24913C",
"1+	c #22933D",
"2+	c #091111",
"3+	c #0C1419",
"4+	c #10181F",
"5+	c #091113",
"6+	c #0E191A",
"7+	c #152524",
"8+	c #1F372D",
"9+	c #294A36",
"0+	c #2E603C",
"a+	c #30693D",
"b+	c #32723E",
"c+	c #307E41",
"d+	c #2A8D45",
"e+	c #239844",
"f+	c #1D9F3D",
"g+	c #1FA53B",
"h+	c #27A73E",
"i+	c #2BA940",
"j+	c #0C1418",
"k+	c #1F382E",
"l+	c #315A3C",
"m+	c #2A7D42",
"n+	c #2A9840",
"o+	c #2CAA49",
"p+	c #2DB34D",
"q+	c #2DB64C",
"r+	c #35BA4E",
"s+	c #41C154",
"t+	c #47C458",
"u+	c #091211",
"v+	c #0C1614",
"w+	c #101D1B",
"x+	c #2F5A3C",
"y+	c #336840",
"z+	c #317543",
"A+	c #2A8143",
"B+	c #228E41",
"C+	c #219C3E",
"D+	c #3BAF51",
"E+	c #59C26D",
"F+	c #6ECB81",
"G+	c #7ECC8F",
"H+	c #87CE97",
"I+	c #8CD49A",
"J+	c #8ED79C",
"K+	c #0C1613",
"L+	c #121F1A",
"M+	c #192C24",
"N+	c #203A2E",
"O+	c #2F7544",
"P+	c #2A8144",
"Q+	c #258D3F",
"R+	c #2AAF47",
"S+	c #5AC26E",
"T+	c #89D69A",
"U+	c #AADFBA",
"V+	c #C1DFD1",
"W+	c #CDE0DC",
"X+	c #CEE2DD",
"Y+	c #CEE3DD",
"Z+	c #0F1A19",
"`+	c #20382A",
" @	c #294A35",
".@	c #317442",
"+@	c #298043",
"@@	c #268F42",
"#@	c #2CA143",
"$@	c #40B253",
"%@	c #5CC36F",
"&@	c #86D397",
"*@	c #B0E1C0",
"=@	c #CDE8DD",
"-@	c #E0E8F0",
";@	c #E9E8F9",
">@	c #25432E",
",@	c #305839",
"'@	c #40B951",
")@	c #64CB74",
"!@	c #8BD99B",
"~@	c #AFE1BF",
"{@	c #CEE6DE",
"]@	c #DFE8EF",
"^@	c #E6E8F6",
"/@	c #172623",
"(@	c #1F352A",
"_@	c #284C33",
":@	c #30643D",
"<@	c #317944",
"[@	c #2C8B48",
"}@	c #2F9C4B",
"|@	c #3AAB4F",
"1@	c #50BC60",
"2@	c #6ACE78",
"3@	c #87DB96",
"4@	c #A4E4B4",
"5@	c #BAE8CA",
"6@	c #CAE9DA",
"7@	c #D1E7E0",
"8@	c #CFE4DE",
"9@	c #CDE2DC",
"0@	c #1B2E26",
"a@	c #28553A",
"b@	c #2B7042",
"c@	c #2EA64C",
"d@	c #3FBD58",
"e@	c #58CF6A",
"f@	c #76DA85",
"g@	c #92E0A1",
"h@	c #A3E4B3",
"i@	c #ADE7BC",
"j@	c #ACE8BC",
"k@	c #A2E8B1",
"l@	c #99E4A7",
"m@	c #91DBA0",
"n@	c #8ED69C",
"o@	c #203E2E",
"p@	c #255138",
"q@	c #286B40",
"r@	c #298846",
"s@	c #31A44E",
"t@	c #40BF59",
"u@	c #5BD36F",
"v@	c #79E28A",
"w@	c #8EE89E",
"x@	c #9CE9AC",
"y@	c #A2E7B2",
"z@	c #A0E4AF",
"A@	c #92E1A1",
"B@	c #77DF87",
"C@	c #5EDB6F",
"D@	c #52D463",
"E@	c #63D271",
"F@	c #80D58E",
"G@	c #8FD79D",
"H@	c #1B2D26",
"I@	c #213B2F",
"J@	c #276A40",
"K@	c #298746",
"L@	c #2CA54C",
"M@	c #5AD56D",
"N@	c #79E289",
"O@	c #96E7A6",
"P@	c #81E491",
"Q@	c #78DB87",
"R@	c #69D47A",
"S@	c #53CE68",
"T@	c #43CC5A",
"U@	c #49CF5C",
"V@	c #7FD58D",
"W@	c #B6DDC5",
"X@	c #1F3629",
"Y@	c #274633",
"Z@	c #2A653D",
"`@	c #2A8746",
" #	c #33A550",
".#	c #42C05B",
"+#	c #5DD471",
"@#	c #7AE28A",
"##	c #8DE79D",
"$#	c #99E4A8",
"%#	c #92E2A2",
"&#	c #77E088",
"*#	c #5EDA70",
"=#	c #50D163",
"-#	c #44CA59",
";#	c #3EC656",
">#	c #58C96B",
",#	c #7ED28D",
"'#	c #ACDBBA",
")#	c #D6E4E5",
"!#	c #E5E8F5",
"~#	c #DCE8EB",
"{#	c #142122",
"]#	c #233C2B",
"^#	c #2B4E34",
"/#	c #2D763E",
"(#	c #2EA149",
"_#	c #96E6A6",
":#	c #83DC92",
"<#	c #6BD47B",
"[#	c #54CE69",
"}#	c #42C95B",
"|#	c #3BC655",
"1#	c #39C652",
"2#	c #B7DDC6",
"3#	c #E3E7F3",
"4#	c #C1E8D1",
"5#	c #131F1F",
"6#	c #21392A",
"7#	c #2C743C",
"8#	c #2EA048",
"9#	c #40BB59",
"0#	c #59CC6C",
"a#	c #76D486",
"b#	c #8FD69E",
"c#	c #8BD29A",
"d#	c #66C975",
"e#	c #41C054",
"f#	c #33BA4D",
"g#	c #2DB94C",
"h#	c #2FBD4E",
"i#	c #32C34F",
"j#	c #44C959",
"k#	c #CEE1DD",
"l#	c #CEE6DD",
"m#	c #B0E4C0",
"n#	c #9DE2AD",
"o#	c #0E1719",
"p#	c #1A2B25",
"q#	c #223C2A",
"r#	c #266036",
"s#	c #298644",
"t#	c #32994F",
"u#	c #3FA158",
"v#	c #4FA863",
"w#	c #5DAE6D",
"x#	c #59AF69",
"y#	c #42AB53",
"z#	c #2CA741",
"A#	c #25A43F",
"B#	c #27AB43",
"C#	c #2CC14D",
"D#	c #38C454",
"E#	c #88CF99",
"F#	c #CDE0DD",
"G#	c #8BDB9A",
"H#	c #71D680",
"I#	c #152122",
"J#	c #1C3126",
"K#	c #225232",
"L#	c #267241",
"M#	c #287F48",
"N#	c #277F48",
"O#	c #238543",
"P#	c #1D913A",
"Q#	c #1B9735",
"R#	c #1E9736",
"S#	c #1F9737",
"T#	c #209738",
"U#	c #25A33F",
"V#	c #2CB74B",
"W#	c #28BF4B",
"X#	c #30C050",
"Y#	c #85CB97",
"Z#	c #CCDEDC",
"`#	c #C2E8D1",
" $	c #4CCF5D",
"      . + @ . # $ % & * * * * * * * * * * * * * * * * * * * * * * * * * * * * * * * * * * * * * * * * * * * * * * & % $ # . @ + .     . + = ",
"- . - ; > , ' ) ! ~ { ] ^ / & ( _ * * * * * * * * : < [ } ] | 1 2 3 3 2 1 | ] } [ < : * * * * * * * * _ ( & / ^ ] { ~ ! ) ' , > ; . . ; > @ ",
"+ + + > 4 5 6 7 8 9 0 a b % % c ( * * * * * * * * ( c b a d d e f g g f e d d a b c ( * * * * * * * * ( c % % b a 0 9 8 7 6 5 4 > + + h 4 . ",
"i i i j k ) l m n o m p q % % c ( * * * * : < [ } r s t u v w x y z z y x w v u t s r } [ < : * * * * ( c % % q p m o n m l ) k j i i j k A ",
"B B B C t ! 8 n m m o q D / & ( _ * * * * ( c b a E F k G H I J K L L K J I H G k F E a b c ( * * * * _ ( & / D q o m m n 8 ! t C B B C t $ ",
"M M M N O P Q o m p q c ( * * * * : ( ^ ] r R S T U V W X Y Z `  ..... .` Z Y X W V U T S R r ] ^ ( : * * * * ( c q p m o Q P O N M M N O +.",
"@.@.@.#.$.) l m n q %.( : * * * * ( c b a E F $.&.*.=.-.;.>.,.'.).!.!.).'.,.>.;.-.=.*.&.$.F E a b c ( * * * * : ( %.q n m l ) $.#.@.@.#.$.A ",
"~.{.~.].$.) 7 p ^.c ( * * * * : /.(._.:.<.[.}.|.1.@.2.~.~.~.~.~.~.~.~.~.~.~.~.~.~.2.@.1.|.}.[.<.:._.(./.: * * * * ( c ^.p 7 ) $.].{.{.].$.# ",
"3.3.3.4.5.P Q q %.( : * * * * ( c ^.p 6.7.}.8.9.0.a.b.c.d.d.d.e.e.4.4.e.e.d.d.d.c.b.a.0.9.8.}.7.6.p ^.c ( * * * * : ( %.q Q P 5.4.3.3.4.5.+.",
"% % % % % % % c ( * * * * : ( f.s g.h.i.j.k.l.) 7 m.n.o.p.o.q.r.r.r.r.r.r.q.o.p.o.n.m.7 ) l.k.j.i.h.g.s f.( : * * * * ( c % % % % % % % % % ",
"s.s.s.s.& & & ( : * * * * /.c s t.u.v.w.i.v.x.y.8 q.o.p.p.q.z.A.A.A.A.A.A.z.q.p.p.o.q.8 y.x.v.i.w.v.u.t.s c /.* * * * : ( & & & s.s.s.s.& & ",
"* * * * * * * * * * * : ( (.q g.B.7.C.D.A.m.r.o.p.o.q.E.F.G.H.I.I.J.J.I.I.H.G.F.E.q.o.p.o.r.m.A.D.C.7.B.g.q (.( : * * * * * * * * * * * * * ",
"* * * * * * * * * * * ( c _.p h.v.<.:.K.K.n.L.p.o.q.m.M.N.O.P.i i i i i i P.O.N.M.m.q.o.p.L.n.K.K.:.<.v.h.p _.c ( * * * * * * * * * * * * * ",
"* * * * * * * * * : ( Q.q n m D.D.m.r.o.p.o.q.E.F.R.H.S.T.U.V.W.X.Y.Y.X.W.V.U.T.S.H.R.F.E.q.o.p.o.r.m.D.D.m n q Q.( : * * * * * * * * * * * ",
"* * * * * * * * * ( c q p m o K.K.r.Z.o.o.q.m.M.N.O.P.`. +.+++@+#+$+$+#+@+++.+ +`.P.O.N.M.m.q.o.o.Z.r.K.K.o m p q c ( * * * * * * * * * * * ",
"* * * * * * * * * & % r.m.p q % %+% &+*+=+R.H.-+T.;+>+,+'+)+)+!+~+{+{+~+!+)+)+'+,+>+;+T.-+H.R.=+*+&+% %+% q p m.r.% & * * * * * * * * * * * ",
"* * * * * * * * * & % ]+r.q Q.& & ^+/+=+(+O.P.`. +` _+:+<+[+[+}+|+1+1+|+}+[+[+<+:+_+`  +`.P.O.(+=+/+^+& & Q.q r.]+% & * * * * * * * * * * * ",
"* * * * * * * 2+( 3+/+4+/+c /.: 5+6+7+8+9+;+0+a+b+c+d+e+f+g+h+i+i+i+i+i+i+h+g+f+e+d+c+b+a+0+;+9+8+7+6+5+: /.c /+4+/+3+( 2+* * * * * * * * * ",
"* * * * * * * ( c /+4+/+j+/.: 5+c 7+k+9+l+` _+m+<+n+o+p+q+r+s+t+t+t+t+t+t+s+r+q+p+o+n+<+m+_+` l+9+k+7+c 5+: /.j+/+4+/+c ( * * * * * * * * * ",
"* * * * * * * & % 4+/+c ( u+v+w+5.8+9+x+y+z+A+B+C+D+E+F+G+H+I+J+J+J+J+J+J+I+H+G+F+E+D+C+B+A+z+y+x+9+8+5.w+v+u+( c /+4+% & * * * * * * * * * ",
"* * * * * * * & % /+3+/.: K+L+M+N+9+l+y+O+P+Q+C+R+S+T+U+V+W+X+Y+Y+Y+Y+Y+Y+X+W+V+U+T+S+R+C+Q+P+O+y+l+9+N+M+L+K+: /.3+/+% & * * * * * * * * * ",
"* * * * * * * ( c c ( : /.Z+E `+ @x+y+.@+@@@#@$@%@&@*@=@-@;@;@;@;@;@;@;@;@;@;@-@=@*@&@%@$@#@@@+@.@y+x+ @`+E Z+/.: ( c c ( * * * * * * * * * ",
"* * * * * * * _ ( ( 2+< c s F >@,@y+O+A+Q+#@'@)@!@~@{@]@^@;@;@;@;@;@;@;@;@;@;@^@]@{@~@!@)@'@#@Q+A+O+y+,@>@F s c < 2+( ( _ * * * * * * * * * ",
"* * * * * * * * * : ( j+b /@(@_@:@<@[@}@|@1@2@3@4@5@6@7@8@X+9@9@9@9@9@9@9@9@X+8@7@6@5@4@3@2@1@|@}@[@<@:@_@(@/@b j+( : * * * * * * * * * * * ",
"* * * * * * * * * /.c b p 0@&.a@b@[@c@d@e@f@g@h@i@j@k@l@m@J+n@J+J+J+J+J+J+n@J+m@l@k@j@i@h@g@f@e@d@c@[@b@a@&.0@p b c /.* * * * * * * * * * * ",
"* * * * * * * : ( %.^.$ 0@o@p@q@r@s@t@u@v@w@x@y@z@A@B@C@D@E@F@J+G@G@G@G@J+F@E@D@C@B@A@z@y@x@w@v@u@t@s@r@q@p@o@0@$ ^.%.( : * * * * * * * * * ",
"* * * * * * * ( c b p H@I@p@J@K@L@t@M@N@O@x@w@P@Q@R@S@T@U@V@W@9@X+9@9@X+9@W@V@U@T@S@R@Q@P@w@x@O@N@M@t@L@K@J@p@I@H@p b c ( * * * * * * * * * ",
"* * * * * * * & % 8 6.X@Y@Z@`@ #.#+#@###$#%#&#*#=#-#;#>#,#'#)#!#-@~#~#-@!#)#'#,#>#;#-#=#*#&#%#$###@#+#.# #`@Z@Y@X@6.8 % & * * * * * * * * * ",
"* * * * * * * & % {#) ]#^#/#(#t@M@v@_#$#:#<#[#}#|#1#-#,#2#)#3#-@=@4#4#=@-@3#)#2#,#-#1#|#}#[#<#:#$#_#v@M@t@(#/#^#]#) {#% & * * * * * * * * * ",
"* * * * * * * /.c 5#t.6#, 7#8#9#0#a#b#c#d#e#f#g#h#i#j#I+k#!#-@l#m#n#n#m#l#-@!#k#I+j#i#h#g#f#e#d#c#b#a#0#9#8#7#, 6#t.5#c /.* * * * * * * * * ",
"* * * * * * * : ( o#s p#q#r#s#t#u#v#w#x#y#z#A#B#g#C#D#E#F#-@=@m#G#H#H#G#m#=@-@F#E#D#C#g#B#A#z#y#x#w#v#u#t#s#r#q#p#s o#( : * * * * * * * * * ",
"* * * * * * * * * s.% I#J#K#L#M#N#O#P#Q#R#S#T#U#V#W#X#Y#Z#~#`#n#H# $ $H#n#`#~#Z#Y#X#W#V#U#T#S#R#Q#P#O#N#M#L#K#J#I#% s.* * * * * * * * * * * ",
"* * * * * * * * * s.% I#J#K#L#M#N#O#P#Q#R#S#T#U#V#W#X#Y#Z#~#`#n#H# $ $H#n#`#~#Z#Y#X#W#V#U#T#S#R#Q#P#O#N#M#L#K#J#I#% s.* * * * * * * * * * * ",
"* * * * * * * : ( o#s p#q#r#s#t#u#v#w#x#y#z#A#B#g#C#D#E#F#-@=@m#G#H#H#G#m#=@-@F#E#D#C#g#B#A#z#y#x#w#v#u#t#s#r#q#p#s o#( : * * * * * * * * * ",
"* * * * * * * /.c 5#t.6#, 7#8#9#0#a#b#c#d#e#f#g#h#i#j#I+k#!#-@l#m#n#n#m#l#-@!#k#I+j#i#h#g#f#e#d#c#b#a#0#9#8#7#, 6#t.5#c /.* * * * * * * * * ",
"* * * * * * * & % {#) ]#^#/#(#t@M@v@_#$#:#<#[#}#|#1#-#,#2#)#3#-@=@4#4#=@-@3#)#2#,#-#1#|#}#[#<#:#$#_#v@M@t@(#/#^#]#) {#% & * * * * * * * * * ",
"* * * * * * * & % 8 6.X@Y@Z@`@ #.#+#@###$#%#&#*#=#-#;#>#,#'#)#!#-@~#~#-@!#)#'#,#>#;#-#=#*#&#%#$###@#+#.# #`@Z@Y@X@6.8 % & * * * * * * * * * ",
"* * * * * * * ( c b p H@I@p@J@K@L@t@M@N@O@x@w@P@Q@R@S@T@U@V@W@9@X+9@9@X+9@W@V@U@T@S@R@Q@P@w@x@O@N@M@t@L@K@J@p@I@H@p b c ( * * * * * * * * * ",
"* * * * * * * : ( %.^.$ 0@o@p@q@r@s@t@u@v@w@x@y@z@A@B@C@D@E@F@J+G@G@G@G@J+F@E@D@C@B@A@z@y@x@w@v@u@t@s@r@q@p@o@0@$ ^.%.( : * * * * * * * * * ",
"* * * * * * * * * /.c b p 0@&.a@b@[@c@d@e@f@g@h@i@j@k@l@m@J+n@J+J+J+J+J+J+n@J+m@l@k@j@i@h@g@f@e@d@c@[@b@a@&.0@p b c /.* * * * * * * * * * * ",
"* * * * * * * * * : ( j+b /@(@_@:@<@[@}@|@1@2@3@4@5@6@7@8@X+9@9@9@9@9@9@9@9@X+8@7@6@5@4@3@2@1@|@}@[@<@:@_@(@/@b j+( : * * * * * * * * * * * ",
"* * * * * * * _ ( ( 2+< c s F >@,@y+O+A+Q+#@'@)@!@~@{@]@^@;@;@;@;@;@;@;@;@;@;@^@]@{@~@!@)@'@#@Q+A+O+y+,@>@F s c < 2+( ( _ * * * * * * * * * ",
"* * * * * * * ( c c ( : /.Z+E `+ @x+y+.@+@@@#@$@%@&@*@=@-@;@;@;@;@;@;@;@;@;@;@-@=@*@&@%@$@#@@@+@.@y+x+ @`+E Z+/.: ( c c ( * * * * * * * * * ",
"* * * * * * * & % /+3+/.: K+L+M+N+9+l+y+O+P+Q+C+R+S+T+U+V+W+X+Y+Y+Y+Y+Y+Y+X+W+V+U+T+S+R+C+Q+P+O+y+l+9+N+M+L+K+: /.3+/+% & * * * * * * * * * ",
"* * * * * * * & % 4+/+c ( u+v+w+5.8+9+x+y+z+A+B+C+D+E+F+G+H+I+J+J+J+J+J+J+I+H+G+F+E+D+C+B+A+z+y+x+9+8+5.w+v+u+( c /+4+% & * * * * * * * * * ",
"* * * * * * * ( c /+4+/+j+/.: 5+c 7+k+9+l+` _+m+<+n+o+p+q+r+s+t+t+t+t+t+t+s+r+q+p+o+n+<+m+_+` l+9+k+7+c 5+: /.j+/+4+/+c ( * * * * * * * * * ",
"* * * * * * * 2+( 3+/+4+/+c /.: 5+6+7+8+9+;+0+a+b+c+d+e+f+g+h+i+i+i+i+i+i+h+g+f+e+d+c+b+a+0+;+9+8+7+6+5+: /.c /+4+/+3+( 2+* * * * * * * * * ",
"* * * * * * * * * & % ]+r.q Q.& & ^+/+=+(+O.P.`. +` _+:+<+[+[+}+|+1+1+|+}+[+[+<+:+_+`  +`.P.O.(+=+/+^+& & Q.q r.]+% & * * * * * * * * * * * ",
"* * * * * * * * * & % r.m.p q % %+% &+*+=+R.H.-+T.;+>+,+'+)+)+!+~+{+{+~+!+)+)+'+,+>+;+T.-+H.R.=+*+&+% %+% q p m.r.% & * * * * * * * * * * * ",
"* * * * * * * * * ( c q p m o K.K.r.Z.o.o.q.m.M.N.O.P.`. +.+++@+#+$+$+#+@+++.+ +`.P.O.N.M.m.q.o.o.Z.r.K.K.o m p q c ( * * * * * * * * * * * ",
"* * * * * * * * * : ( Q.q n m D.D.m.r.o.p.o.q.E.F.R.H.S.T.U.V.W.X.Y.Y.X.W.V.U.T.S.H.R.F.E.q.o.p.o.r.m.D.D.m n q Q.( : * * * * * * * * * * * ",
"* * * * * * * * * * * ( c _.p h.v.<.:.K.K.n.L.p.o.q.m.M.N.O.P.i i i i i i P.O.N.M.m.q.o.p.L.n.K.K.:.<.v.h.p _.c ( * * * * * * * * * * * * * ",
"* * * * * * * * * * * : ( (.q g.B.7.C.D.A.m.r.o.p.o.q.E.F.G.H.I.I.J.J.I.I.H.G.F.E.q.o.p.o.r.m.A.D.C.7.B.g.q (.( : * * * * * * * * * * * * * ",
"s.s.s.s.& & & ( : * * * * /.c s t.u.v.w.i.v.x.y.8 q.o.p.p.q.z.A.A.A.A.A.A.z.q.p.p.o.q.8 y.x.v.i.w.v.u.t.s c /.* * * * : ( & & & s.s.s.s.& & ",
"% % % % % % % c ( * * * * : ( f.s g.h.i.j.k.l.) 7 m.n.o.p.o.q.r.r.r.r.r.r.q.o.p.o.n.m.7 ) l.k.j.i.h.g.s f.( : * * * * ( c % % % % % % % % % ",
"3.3.3.4.5.P Q q %.( : * * * * ( c ^.p 6.7.}.8.9.0.a.b.c.d.d.d.e.e.4.4.e.e.d.d.d.c.b.a.0.9.8.}.7.6.p ^.c ( * * * * : ( %.q Q P 5.4.3.3.4.5.+.",
"~.{.~.].$.) 7 p ^.c ( * * * * : /.(._.:.<.[.}.|.1.@.2.~.~.~.~.~.~.~.~.~.~.~.~.~.~.2.@.1.|.}.[.<.:._.(./.: * * * * ( c ^.p 7 ) $.].{.{.].$.# ",
"@.@.@.#.$.) l m n q %.( : * * * * ( c b a E F $.&.*.=.-.;.>.,.'.).!.!.).'.,.>.;.-.=.*.&.$.F E a b c ( * * * * : ( %.q n m l ) $.#.@.@.#.$.A ",
"M M M N O P Q o m p q c ( * * * * : ( ^ ] r R S T U V W X Y Z `  ..... .` Z Y X W V U T S R r ] ^ ( : * * * * ( c q p m o Q P O N M M N O +.",
"B B B C t ! 8 n m m o q D / & ( _ * * * * ( c b a E F k G H I J K L L K J I H G k F E a b c ( * * * * _ ( & / D q o m m n 8 ! t C B B C t $ ",
"i i i j k ) l m n o m p q % % c ( * * * * : < [ } r s t u v w x y z z y x w v u t s r } [ < : * * * * ( c % % q p m o n m l ) k j i i j k A ",
"+ + + > 4 5 6 7 8 9 0 a b % % c ( * * * * * * * * ( c b a d d e f g g f e d d a b c ( * * * * * * * * ( c % % b a 0 9 8 7 6 5 4 > + + h 4 . ",
"- . - ; > , ' ) ! ~ { ] ^ / & ( _ * * * * * * * * : < [ } ] | 1 2 3 3 2 1 | ] } [ < : * * * * * * * * _ ( & / ^ ] { ~ ! ) ' , > ; . . ; > @ ",
"      . + @ . # $ % & * * * * * * * * * * * * * * * * * * * * * * * * * * * * * * * * * * * * * * * * * * * * * * & % $ # . @ + .     . + = "};
